<svg width="203" height="59" viewBox="0 0 203 59" fill="none" xmlns="http://www.w3.org/2000/svg">
<g clip-path="url(#clip0_2403_439)">
<path d="M60.3438 23.8063C58.6198 19.7092 55.8434 16.1318 52.2913 13.4305C48.7391 10.7293 44.5353 8.99857 40.0987 8.41088C35.6621 7.82319 31.1477 8.39905 27.0054 10.0811C22.863 11.7631 19.2375 14.4925 16.49 17.9973C13.7425 21.5021 11.969 25.6599 11.3463 30.0564C10.7235 34.4529 11.2733 38.9344 12.9408 43.0545C14.6083 47.1745 17.3353 50.7892 20.85 53.5382C24.3647 56.2872 28.5443 58.0746 32.9724 58.7223C32.3924 56.6491 31.8024 54.3578 31.2824 51.9275C32.7952 52.9009 34.3875 53.747 36.0426 54.457C36.0426 54.457 36.1626 56.5995 36.3226 58.9901C38.1109 59.0207 39.8975 58.8644 41.6529 58.5239C41.6075 58.2746 41.6075 58.0193 41.6529 57.77C41.9429 55.9151 42.7429 52.5723 42.9029 50.4198C44.0563 49.3498 45.0347 48.1082 45.8031 46.7397L45.7431 47.1762C45.193 51.4018 44.043 55.9151 43.343 57.1649C43.1163 57.5786 42.8374 57.962 42.5129 58.3056C46.1329 57.4633 49.5249 55.8502 52.4537 53.5781C55.3825 51.3059 57.7781 48.4292 59.4743 45.1473C61.1706 41.8653 62.1269 38.2568 62.2771 34.5717C62.4272 30.8867 61.7675 27.2133 60.3438 23.8063ZM58.8737 27.5657C58.4337 27.9923 57.5237 28.2799 57.3736 26.9904C57.2236 25.7009 57.1836 24.7983 57.1836 24.7983C57.1836 24.7983 55.2535 21.3959 54.5335 21.3563C53.8135 21.3166 48.7032 24.7983 47.3532 26.3159C46.1831 27.5955 45.9531 27.5062 45.9531 29.7579C45.9531 31.4541 46.1731 37.862 46.0531 42.7621L37.9027 44.9146C35.3409 45.6438 32.7357 46.2137 30.1023 46.6207L29.1023 40.8378H28.9622L26.3921 27.774C26.3921 27.774 22.5819 26.3457 21.1819 25.9588C20.5245 25.6735 19.7985 25.5808 19.0897 25.6915C18.3809 25.8023 17.7188 26.1118 17.1817 26.5837C16.6337 27.0597 16.1955 27.6471 15.8969 28.3061C15.5984 28.9651 15.4465 29.6802 15.4516 30.4027C15.663 30.8637 15.8239 31.3459 15.9316 31.841C15.9816 32.3171 14.7315 32.2675 13.9315 32.2675C13.1315 32.2675 13.0115 30.8391 13.6415 29.1627C14.133 27.8737 14.7422 26.632 15.4616 25.4529C16.0026 24.3997 16.7005 23.4333 17.5317 22.5862C17.5317 22.5862 17.6717 22.249 18.7817 22.3482C19.8918 22.4474 26.0621 22.7747 26.0621 22.7747L26.1121 20.523C32.8188 19.6045 39.5829 19.1603 46.3531 19.1938C46.3531 19.7989 46.3531 20.404 46.3531 21.0091C48.9175 19.8483 51.6788 19.1754 54.4935 19.0252C54.6441 19.0214 54.7933 19.0548 54.9277 19.1223C55.0621 19.1898 55.1775 19.2894 55.2635 19.4121C55.6036 19.8386 57.6737 22.3879 57.9137 22.7549C58.5859 23.7078 59.1972 24.7017 59.7438 25.7307C59.5564 26.3822 59.2625 26.9988 58.8737 27.5558V27.5657Z" fill="#FDC305"/>
<path d="M56.9242 21.4951C57.3942 22.0903 57.8042 22.616 57.9242 22.7747C58.5964 23.7277 59.2077 24.7215 59.7543 25.7505C59.564 26.3806 59.2737 26.9767 58.8943 27.5161C58.4542 27.9427 57.5442 28.2303 57.3942 26.9408C57.2442 25.6513 57.1842 24.7983 57.1842 24.7983C57.1842 24.7983 55.2541 21.3959 54.534 21.3563C53.814 21.3166 48.7037 24.7983 47.3537 26.3159C46.1836 27.5955 45.9536 27.5062 45.9536 29.7579C45.9536 31.2458 46.1236 36.3542 46.0836 40.8973C47.8937 41.0957 50.5538 41.5916 51.3539 42.7621C51.3539 42.7621 51.0639 35.64 59.1643 39.3697C59.1643 39.3697 59.4443 29.6587 70.6248 32.1485C66.8241 27.7223 62.1648 24.0994 56.9242 21.4951Z" fill="#F06351"/>
<path d="M46.3936 19.1938C46.4342 13.6973 45.9656 8.2087 44.9935 2.79724C44.9935 2.79724 44.8435 1.50773 44.1235 2.55918C43.5293 3.81617 43.1249 5.15308 42.9234 6.5269C38.6484 6.25483 34.3573 6.36771 30.1028 6.86415C29.2827 4.13635 27.8827 2.89643 27.2126 3.22377C26.5426 3.55111 26.4626 6.4773 26.4626 6.4773L26.1326 20.523C32.8459 19.6036 39.6167 19.1594 46.3936 19.1938Z" fill="#F06351"/>
<path d="M45.8128 46.7397C45.9428 45.6784 46.0128 44.2698 46.0528 42.7125L37.9028 44.865C35.3422 45.611 32.7371 46.1974 30.1028 46.6207L31.2128 51.5804C31.2128 51.6895 31.2128 51.7986 31.2828 51.9077C32.7955 52.8811 34.3878 53.7272 36.0428 54.4371C38.4615 53.2903 40.7651 51.9186 42.9228 50.3404V50.4C44.0709 49.3352 45.0458 48.1005 45.8128 46.7397Z" fill="#E55645"/>
<path d="M32.4629 16.0891C32.4129 15.9899 33.4629 16.7636 33.8729 17.0017C34.2829 17.2397 34.4829 17.4183 34.4829 17.5869C34.4829 17.7556 34.2229 17.9242 33.8629 17.9242C33.5029 17.9242 32.9429 17.8051 32.8629 17.6663C32.7829 17.5274 33.4629 17.6663 33.8029 17.6663H34.0929C33.4772 17.2195 32.9285 16.6885 32.4629 16.0891Z" fill="black"/>
<path d="M39.9633 16.1982C39.9633 16.1982 38.9633 17.4679 38.8733 17.5274C38.7833 17.5869 38.7033 17.8647 39.0633 17.8151C39.4765 17.7539 39.8844 17.661 40.2833 17.5373C40.3933 17.4778 40.3533 17.3389 40.1633 17.3588C39.9733 17.3786 39.4833 17.4084 39.1633 17.4679L40.0133 16.2081C40.0133 16.2081 40.0433 16.0891 39.9633 16.1982Z" fill="black"/>
<path d="M36.823 22.2589C37.2866 22.0563 37.6697 21.7077 37.913 21.267C38.193 20.6123 37.913 20.3643 37.473 20.275C36.8677 20.1655 36.243 20.2859 35.723 20.6123C35.333 20.9793 35.383 21.3364 35.723 21.6042C36.0608 21.867 36.4304 22.0869 36.823 22.2589Z" fill="black"/>
<path d="M36.4629 23.5087C36.3481 23.7337 36.1921 23.9355 36.0029 24.1039C35.7181 24.3312 35.368 24.4631 35.0029 24.4808C34.4523 24.5344 33.9018 24.3784 33.4629 24.0444C33.2613 23.9274 33.0819 23.7764 32.9329 23.598C32.8328 23.49 32.7099 23.4053 32.5729 23.35C32.5729 23.35 33.3229 27.4269 35.1429 28.0815C36.9629 28.7362 37.3029 27.3277 37.3529 26.9507C37.4138 25.8218 37.1279 24.7011 36.5329 23.7369C36.5329 23.4393 36.5129 23.6377 36.4629 23.5087Z" fill="#F06351"/>
<path d="M34.7628 24.6395C34.2948 24.5728 33.8453 24.4127 33.4414 24.1689C33.0376 23.9251 32.6876 23.6027 32.4128 23.2211C32.3882 23.1938 32.3746 23.1585 32.3746 23.1219C32.3746 23.0853 32.3882 23.05 32.4128 23.0227C32.4259 23.0095 32.4414 22.999 32.4586 22.9919C32.4758 22.9847 32.4942 22.981 32.5128 22.981C32.5315 22.981 32.5499 22.9847 32.5671 22.9919C32.5842 22.999 32.5998 23.0095 32.6128 23.0227C32.8603 23.3671 33.1742 23.6593 33.5364 23.8823C33.8987 24.1054 34.3019 24.2549 34.7228 24.3221C35.0558 24.2973 35.3781 24.1945 35.6632 24.022C35.9483 23.8496 36.1881 23.6125 36.3628 23.3302L36.5028 23.1417L36.6028 23.36C36.6028 23.36 36.9828 24.1138 37.6028 24.1535C38.2228 24.1932 38.6628 23.7369 39.2328 22.8739C39.254 22.8423 39.287 22.8204 39.3245 22.813C39.3621 22.8055 39.401 22.8132 39.4328 22.8342C39.4647 22.8553 39.4867 22.888 39.4943 22.9252C39.5018 22.9624 39.494 23.001 39.4728 23.0326C38.8062 24.0047 38.1762 24.4709 37.5828 24.4312C37.3535 24.4011 37.1339 24.3204 36.9401 24.1951C36.7463 24.0698 36.5832 23.9031 36.4628 23.7071C36.2672 23.9781 36.0131 24.2025 35.719 24.3638C35.4249 24.5251 35.0983 24.6193 34.7628 24.6395Z" fill="black"/>
<path d="M36.7229 37.9909C38.794 37.9909 40.4729 36.3255 40.4729 34.2712C40.4729 32.2168 38.794 30.5514 36.7229 30.5514C34.6518 30.5514 32.9729 32.2168 32.9729 34.2712C32.9729 36.3255 34.6518 37.9909 36.7229 37.9909Z" fill="#FDC305"/>
<path d="M41.6929 31.2458L38.5629 32.5452L39.7129 26.9607L32.2129 36.6419L35.3429 35.3425L34.1929 40.937L41.6929 31.2458ZM34.3029 35.0449L38.4629 29.6786L37.6529 33.6463L39.6529 32.8329L35.4629 38.2092L36.2729 34.2414L34.3029 35.0449Z" fill="#111111"/>
<path d="M32.9028 33.5868C33.5214 33.5868 34.0228 33.0894 34.0228 32.4758C34.0228 31.8622 33.5214 31.3648 32.9028 31.3648C32.2843 31.3648 31.7828 31.8622 31.7828 32.4758C31.7828 33.0894 32.2843 33.5868 32.9028 33.5868Z" fill="#111111"/>
<path d="M39.4232 37.614C39.8595 37.614 40.2132 37.2631 40.2132 36.8304C40.2132 36.3976 39.8595 36.0467 39.4232 36.0467C38.9869 36.0467 38.6332 36.3976 38.6332 36.8304C38.6332 37.2631 38.9869 37.614 39.4232 37.614Z" fill="#111111"/>
<path d="M40.3832 35.4615C40.5765 35.4615 40.7332 35.3061 40.7332 35.1143C40.7332 34.9226 40.5765 34.7672 40.3832 34.7672C40.1899 34.7672 40.0332 34.9226 40.0332 35.1143C40.0332 35.3061 40.1899 35.4615 40.3832 35.4615Z" fill="#111111"/>
<path d="M46.3435 20.9892C44.5383 22.6034 42.8381 24.3295 41.2533 26.1572C39.6746 27.9717 37.8931 29.6023 35.943 31.0177C35.723 30.4919 34.3129 29.5099 34.3129 29.5099C34.3129 29.5099 31.1728 27.3773 29.1127 25.7009C27.999 24.7809 26.9499 23.7867 25.9725 22.7251L23.9724 22.616C26.8596 26.7991 31.0893 29.8897 35.973 31.3847C36.833 31.2458 39.2532 29.5298 41.0633 28.1311C43.2048 26.3247 45.2102 24.3654 47.0636 22.2688C47.5617 21.6816 47.948 21.0094 48.2036 20.285C47.0636 20.6619 46.3435 20.9892 46.3435 20.9892Z" fill="#F06351"/>
<path d="M65.684 3.47176L57.224 12.8356L56.004 10.8616L64.154 0L65.684 3.47176Z" fill="#FDC305"/>
<path d="M63.1144 17.1207L68.6544 13.0439L67.8744 9.33406L62.4744 14.1052L63.1144 17.1207Z" fill="#FDC305"/>
<path d="M60.3843 48.9716L66.5143 52.1259L69.5243 49.8048L62.8343 47.077L60.3843 48.9716Z" fill="#FDC305"/>
<path d="M2.41125 5.92182L5.48125 2.58894L14.7713 11.5163L13.5513 13.7779L2.41125 5.92182Z" fill="#FDC305"/>
<path d="M7.84133 16.1486L3.14133 13.0439L0.741333 16.8826L5.89133 19.2633L7.84133 16.1486Z" fill="#FDC305"/>
<path d="M14.3713 52.1259L9.82129 55.4489L12.6213 59L16.6413 55.0124L14.3713 52.1259Z" fill="#FDC305"/>
<path d="M26.3926 27.774C26.3926 27.774 22.5824 26.3457 21.1823 25.9588C20.5249 25.6735 19.799 25.5808 19.0902 25.6915C18.3814 25.8023 17.7193 26.1118 17.1821 26.5837C16.6341 27.0597 16.1959 27.6471 15.8974 28.3061C15.5988 28.9651 15.4469 29.6802 15.452 30.4027C15.6634 30.8637 15.8244 31.3459 15.9321 31.841C15.9821 32.3171 14.732 32.2675 13.932 32.2675C13.1319 32.2675 13.0119 30.8391 13.642 29.1627C14.1335 27.8737 14.7427 26.632 15.462 25.4529C10.0118 28.27 0.461304 34.7771 0.461304 34.7771C3.19313 34.6137 5.93422 34.6933 8.65171 35.0151C13.902 35.5409 13.652 39.6474 13.652 39.6474C15.4986 39.1425 17.3806 38.7745 19.2822 38.5464C21.4023 38.4075 21.5523 40.6493 21.5523 40.6493L22.0824 44.4781C22.8872 43.6145 23.7747 42.8305 24.7325 42.1372C25.967 41.157 27.539 40.6942 29.1127 40.8477L26.3926 27.774Z" fill="#F06351"/>
<path d="M86.1255 41.6611C85.0953 40.1469 84.6028 38.3356 84.7255 36.5129V29.0735C84.5956 27.2374 85.0807 25.4102 86.1055 23.8758C87.0322 22.6921 88.6155 22.1035 90.8555 22.1101C93.0955 22.1167 94.6122 22.6358 95.4055 23.6675C96.3729 24.9458 96.8449 26.5265 96.7355 28.1212V29.867H92.5955V27.9724C92.5899 27.4739 92.5465 26.9766 92.4655 26.4845C92.4155 26.1283 92.2506 25.7978 91.9955 25.5422C91.8381 25.4083 91.6552 25.3068 91.4578 25.2438C91.2603 25.1808 91.0522 25.1574 90.8455 25.1752C90.5487 25.1313 90.2455 25.1791 89.9771 25.3122C89.7087 25.4453 89.4882 25.6573 89.3455 25.9191C89.0826 26.6157 88.9668 27.3585 89.0055 28.1014V37.5446C88.9599 38.2923 89.0935 39.0402 89.3955 39.7268C89.5398 39.9745 89.7539 40.175 90.0115 40.3037C90.2691 40.4323 90.559 40.4835 90.8455 40.4509C91.1271 40.4904 91.414 40.4407 91.6654 40.3089C91.9168 40.1771 92.1198 39.9699 92.2455 39.7169C92.4874 39.019 92.5926 38.2816 92.5555 37.5446V35.5607H96.6955V37.2767C96.8174 38.895 96.3839 40.5066 95.4655 41.8495C94.5855 42.9407 93.0655 43.4763 90.9055 43.4763C88.7455 43.4763 87.0555 42.8811 86.1255 41.6611Z" fill="#111111"/>
<path d="M102.376 22.3978H107.116L111.116 43.2283H107.176L106.466 38.6258H103.146L102.346 43.1986H98.3462L102.376 22.3978ZM106.026 36.0071L104.766 27.6352L103.516 36.0071H106.026Z" fill="#111111"/>
<path d="M114.187 25.5323H110.947V22.3978H121.667V25.5323H118.467V43.1986H114.177L114.187 25.5323Z" fill="#111111"/>
<path d="M130.078 22.3978H138.208V24.5602H133.008V31.4343H137.228V33.4876H133.008V41.1155H138.258V43.1986H130.078V22.3978Z" fill="#444444"/>
<path d="M140.618 22.3978H142.618L148.618 36.2154V22.3978H151.058V43.2283H149.188L143.188 29.0239V43.1986H140.708L140.618 22.3978Z" fill="#444444"/>
<path d="M154.289 22.3978H162.409V24.5602H157.209V31.4343H161.469V33.4876H157.249V41.1155H162.469V43.1986H154.289V22.3978Z" fill="#444444"/>
<path d="M164.819 22.3978H169.039C170.702 22.265 172.359 22.7259 173.709 23.6972C174.709 24.5602 175.199 25.9687 175.199 27.9228C175.199 30.568 174.336 32.1848 172.609 32.7734L175.609 43.1986H172.769L170.019 33.438H167.749V43.1986H164.819V22.3978ZM168.819 31.3251C169.783 31.4176 170.746 31.1486 171.519 30.5713C171.834 30.2024 172.069 29.7736 172.21 29.3113C172.351 28.849 172.395 28.363 172.339 27.8832C172.36 27.2102 172.261 26.5389 172.049 25.8993C171.963 25.6635 171.831 25.4471 171.659 25.2631C171.487 25.0791 171.28 24.9312 171.049 24.828C170.4 24.5638 169.7 24.4453 168.999 24.4808H167.709V31.3648L168.819 31.3251Z" fill="#444444"/>
<path d="M179.14 41.6611C178.184 40.0607 177.741 38.21 177.87 36.3542V29.4107C177.836 28.0708 178.004 26.7333 178.37 25.443C178.659 24.473 179.273 23.6297 180.11 23.0525C181.121 22.4481 182.291 22.1579 183.47 22.2192C184.233 22.1473 185.002 22.2414 185.724 22.495C186.446 22.7486 187.103 23.1555 187.65 23.6873C188.61 25.0205 189.063 26.6472 188.93 28.2799V29.0536H186.18V28.4089C186.199 27.6377 186.139 26.8667 186 26.1076C185.909 25.6211 185.638 25.186 185.24 24.8875C184.721 24.5836 184.122 24.4419 183.52 24.4808C182.867 24.4254 182.218 24.6247 181.71 25.0363C181.295 25.4267 181.024 25.9435 180.94 26.5044C180.813 27.3215 180.757 28.1477 180.77 28.9743V36.7014C180.691 37.8756 180.893 39.0518 181.36 40.1335C181.631 40.4662 181.976 40.7329 182.367 40.9133C182.758 41.0937 183.186 41.183 183.617 41.1744C184.048 41.1658 184.472 41.0595 184.856 40.8636C185.239 40.6677 185.572 40.3874 185.83 40.0442C186.312 38.9001 186.521 37.661 186.44 36.4237V34.9556H183.78V32.9023H189.08V43.1986H187.27L186.98 40.808C186.751 41.6022 186.258 42.2962 185.58 42.777C184.903 43.2578 184.082 43.4973 183.25 43.4565C182.468 43.5249 181.681 43.3961 180.963 43.0823C180.244 42.7684 179.617 42.2795 179.14 41.6611Z" fill="#444444"/>
<path d="M195.161 35.8583L190.631 22.3978H193.351L196.561 32.4361L199.721 22.3978H202.471L197.971 35.8583V43.1986H195.171L195.161 35.8583Z" fill="#444444"/>
</g>
<defs>
<clipPath id="clip0_2403_439">
<rect width="202" height="59" fill="white" transform="translate(0.461304)"/>
</clipPath>
</defs>
</svg>
